<?xml version="1.0" encoding="utf-8" standalone="no"?>
<!DOCTYPE svg PUBLIC "-//W3C//DTD SVG 1.1//EN"
  "http://www.w3.org/Graphics/SVG/1.1/DTD/svg11.dtd">
<svg xmlns:xlink="http://www.w3.org/1999/xlink" width="648pt" height="648pt" viewBox="0 0 648 648" xmlns="http://www.w3.org/2000/svg" version="1.1">
 <metadata>
  <rdf:RDF xmlns:dc="http://purl.org/dc/elements/1.1/" xmlns:cc="http://creativecommons.org/ns#" xmlns:rdf="http://www.w3.org/1999/02/22-rdf-syntax-ns#">
   <cc:Work>
    <dc:type rdf:resource="http://purl.org/dc/dcmitype/StillImage"/>
    <dc:date>2022-04-30T19:59:31.132070</dc:date>
    <dc:format>image/svg+xml</dc:format>
    <dc:creator>
     <cc:Agent>
      <dc:title>Matplotlib v3.5.1, https://matplotlib.org/</dc:title>
     </cc:Agent>
    </dc:creator>
   </cc:Work>
  </rdf:RDF>
 </metadata>
 <defs>
  <style type="text/css">*{stroke-linejoin: round; stroke-linecap: butt}</style>
 </defs>
 <g id="figure_1">
  <g id="patch_1">
   <path d="M 0 648 
L 648 648 
L 648 0 
L 0 0 
L 0 648 
z
" style="fill: none"/>
  </g>
  <g id="axes_1">
   <g id="patch_2">
    <path d="M 81 567 
L 583.2 567 
L 583.2 77.76 
L 81 77.76 
z
" style="fill: #ffffff"/>
   </g>
   <g id="matplotlib.axis_1">
    <g id="xtick_1">
     <g id="line2d_1">
      <defs>
       <path id="m86c76ed772" d="M 0 0 
L 0 3.5 
" style="stroke: #000000; stroke-width: 0.8"/>
      </defs>
      <g>
       <use xlink:href="#m86c76ed772" x="332.1" y="322.38" style="stroke: #000000; stroke-width: 0.8"/>
      </g>
     </g>
     <g id="text_1">
      <!-- 0 -->
      <g transform="translate(331.801689 339.251874)rotate(-45)scale(0.1 -0.1)">
       <defs>
        <path id="DejaVuSans-30" d="M 2034 4250 
Q 1547 4250 1301 3770 
Q 1056 3291 1056 2328 
Q 1056 1369 1301 889 
Q 1547 409 2034 409 
Q 2525 409 2770 889 
Q 3016 1369 3016 2328 
Q 3016 3291 2770 3770 
Q 2525 4250 2034 4250 
z
M 2034 4750 
Q 2819 4750 3233 4129 
Q 3647 3509 3647 2328 
Q 3647 1150 3233 529 
Q 2819 -91 2034 -91 
Q 1250 -91 836 529 
Q 422 1150 422 2328 
Q 422 3509 836 4129 
Q 1250 4750 2034 4750 
z
" transform="scale(0.015625)"/>
       </defs>
       <use xlink:href="#DejaVuSans-30"/>
      </g>
     </g>
    </g>
    <g id="xtick_2">
     <g id="line2d_2">
      <g>
       <use xlink:href="#m86c76ed772" x="377.754545" y="322.38" style="stroke: #000000; stroke-width: 0.8"/>
      </g>
     </g>
     <g id="text_2">
      <!-- 1 -->
      <g transform="translate(377.456235 339.251874)rotate(-45)scale(0.1 -0.1)">
       <defs>
        <path id="DejaVuSans-31" d="M 794 531 
L 1825 531 
L 1825 4091 
L 703 3866 
L 703 4441 
L 1819 4666 
L 2450 4666 
L 2450 531 
L 3481 531 
L 3481 0 
L 794 0 
L 794 531 
z
" transform="scale(0.015625)"/>
       </defs>
       <use xlink:href="#DejaVuSans-31"/>
      </g>
     </g>
    </g>
    <g id="xtick_3">
     <g id="line2d_3">
      <g>
       <use xlink:href="#m86c76ed772" x="469.063636" y="322.38" style="stroke: #000000; stroke-width: 0.8"/>
      </g>
     </g>
     <g id="text_3">
      <!-- 1.5 -->
      <g transform="translate(465.392205 345.998114)rotate(-45)scale(0.1 -0.1)">
       <defs>
        <path id="DejaVuSans-2e" d="M 684 794 
L 1344 794 
L 1344 0 
L 684 0 
L 684 794 
z
" transform="scale(0.015625)"/>
        <path id="DejaVuSans-35" d="M 691 4666 
L 3169 4666 
L 3169 4134 
L 1269 4134 
L 1269 2991 
Q 1406 3038 1543 3061 
Q 1681 3084 1819 3084 
Q 2600 3084 3056 2656 
Q 3513 2228 3513 1497 
Q 3513 744 3044 326 
Q 2575 -91 1722 -91 
Q 1428 -91 1123 -41 
Q 819 9 494 109 
L 494 744 
Q 775 591 1075 516 
Q 1375 441 1709 441 
Q 2250 441 2565 725 
Q 2881 1009 2881 1497 
Q 2881 1984 2565 2268 
Q 2250 2553 1709 2553 
Q 1456 2553 1204 2497 
Q 953 2441 691 2322 
L 691 4666 
z
" transform="scale(0.015625)"/>
       </defs>
       <use xlink:href="#DejaVuSans-31"/>
       <use xlink:href="#DejaVuSans-2e" x="63.623047"/>
       <use xlink:href="#DejaVuSans-35" x="95.410156"/>
      </g>
     </g>
    </g>
    <g id="xtick_4">
     <g id="line2d_4">
      <g>
       <use xlink:href="#m86c76ed772" x="560.372727" y="322.38" style="stroke: #000000; stroke-width: 0.8"/>
      </g>
     </g>
     <g id="text_4">
      <!-- 5 -->
      <g transform="translate(560.074417 339.251874)rotate(-45)scale(0.1 -0.1)">
       <use xlink:href="#DejaVuSans-35"/>
      </g>
     </g>
    </g>
   </g>
   <g id="matplotlib.axis_2"/>
   <g id="line2d_5">
    <path d="M 332.1 207.965498 
L 337.835496 207.865224 
L 343.570991 207.564924 
L 349.306487 207.066164 
L 355.041983 206.371501 
L 360.777478 205.484429 
L 367.660073 204.172127 
L 374.542668 202.597944 
L 381.425263 200.772051 
L 388.307857 198.705594 
L 395.190452 196.410413 
L 402.073047 193.898765 
L 410.102741 190.711502 
L 418.132435 187.266174 
L 426.162129 183.581998 
L 435.338922 179.102732 
L 444.515715 174.361758 
L 453.692508 169.383404 
L 464.0164 163.526841 
L 474.340292 157.427134 
L 485.811284 150.396011 
L 498.429374 142.389574 
L 512.194564 133.371444 
L 527.106852 123.313056 
L 543.16624 112.193375 
L 560.372727 99.998182 
L 560.372727 99.998182 
" clip-path="url(#pfe91a8ff44)" style="fill: none; stroke: #0000ff; stroke-width: 1.5; stroke-linecap: square"/>
   </g>
   <g id="line2d_6">
    <path d="M 332.1 436.794502 
L 337.835496 436.894776 
L 343.570991 437.195076 
L 349.306487 437.693836 
L 355.041983 438.388499 
L 360.777478 439.275571 
L 367.660073 440.587873 
L 374.542668 442.162056 
L 381.425263 443.987949 
L 388.307857 446.054406 
L 395.190452 448.349587 
L 402.073047 450.861235 
L 410.102741 454.048498 
L 418.132435 457.493826 
L 426.162129 461.178002 
L 435.338922 465.657268 
L 444.515715 470.398242 
L 453.692508 475.376596 
L 464.0164 481.233159 
L 474.340292 487.332866 
L 485.811284 494.363989 
L 498.429374 502.370426 
L 512.194564 511.388556 
L 527.106852 521.446944 
L 543.16624 532.566625 
L 560.372727 544.761818 
L 560.372727 544.761818 
" clip-path="url(#pfe91a8ff44)" style="fill: none; stroke: #008000; stroke-width: 1.5; stroke-linecap: square"/>
   </g>
   <g id="line2d_7">
    <path d="M 103.827273 99.998182 
L 121.03376 112.193375 
L 137.093148 123.313056 
L 152.005436 133.371444 
L 165.770626 142.389574 
L 178.388716 150.396011 
L 189.859708 157.427134 
L 201.330699 164.190081 
L 211.654591 170.017896 
L 220.831384 174.967842 
L 230.008177 179.677471 
L 239.18497 184.122222 
L 247.214664 187.773429 
L 255.244358 191.18308 
L 263.274052 194.331878 
L 270.156647 196.80831 
L 277.039242 199.066214 
L 283.921836 201.093383 
L 290.804431 202.878076 
L 297.687026 204.409288 
L 304.569621 205.677039 
L 310.305116 206.525951 
L 316.040612 207.181684 
L 321.776108 207.640926 
L 327.511603 207.901312 
L 332.1 207.965498 
L 332.1 207.965498 
" clip-path="url(#pfe91a8ff44)" style="fill: none; stroke: #ff0000; stroke-width: 1.5; stroke-linecap: square"/>
   </g>
   <g id="line2d_8">
    <path d="M 103.827273 544.761818 
L 121.03376 532.566625 
L 137.093148 521.446944 
L 152.005436 511.388556 
L 165.770626 502.370426 
L 178.388716 494.363989 
L 189.859708 487.332866 
L 201.330699 480.569919 
L 211.654591 474.742104 
L 220.831384 469.792158 
L 230.008177 465.082529 
L 239.18497 460.637778 
L 247.214664 456.986571 
L 255.244358 453.57692 
L 263.274052 450.428122 
L 270.156647 447.95169 
L 277.039242 445.693786 
L 283.921836 443.666617 
L 290.804431 441.881924 
L 297.687026 440.350712 
L 304.569621 439.082961 
L 310.305116 438.234049 
L 316.040612 437.578316 
L 321.776108 437.119074 
L 327.511603 436.858688 
L 332.1 436.794502 
L 332.1 436.794502 
" clip-path="url(#pfe91a8ff44)" style="fill: none; stroke: #bfbf00; stroke-width: 1.5; stroke-linecap: square"/>
   </g>
   <g id="patch_3">
    <path d="M 332.1 567 
L 332.1 77.76 
" style="fill: none; stroke: #000000; stroke-width: 0.8; stroke-linejoin: miter; stroke-linecap: square"/>
   </g>
   <g id="patch_4">
    <path d="M 583.2 567 
L 583.2 77.76 
" style="fill: none"/>
   </g>
   <g id="patch_5">
    <path d="M 81 322.38 
L 583.2 322.38 
" style="fill: none; stroke: #000000; stroke-width: 0.8; stroke-linejoin: miter; stroke-linecap: square"/>
   </g>
   <g id="patch_6">
    <path d="M 81 77.76 
L 583.2 77.76 
" style="fill: none"/>
   </g>
  </g>
 </g>
 <defs>
  <clipPath id="pfe91a8ff44">
   <rect x="81" y="77.76" width="502.2" height="489.24"/>
  </clipPath>
 </defs>
</svg>
